<svg version="1.0" xmlns="http://www.w3.org/2000/svg" width="700" height="250"><g fill="#fff"><path fill="#46bc99" d="M310 4420h6400V2470H310z" transform="matrix(.1 0 0 -.1 0 470)"/><path d="M300 4566c-48-21-100-72-123-121-21-45-21-50-21-990 0-780 2-951 14-979 21-49 71-101 121-125l45-21h3175c2672 0 3181 2 3209 14 49 21 101 71 125 121 21 45 21 50 21 990 0 780-2 951-14 979-21 49-71 101-121 125l-45 21H3509c-2634-1-3183-3-3209-14m6383-168 23-21V2536l-22-23-21-23H362l-23 22-23 21v1841l22 23 21 23h6301z" transform="matrix(.1 0 0 -.1 0 470)"/><path d="M561 4168c-3-7-4-332-3-723l3-710 718-3 717-2v1450h-715c-563 0-717-3-720-12m1373-60c17-17 17-1289 0-1306s-1289-17-1306 0-17 1289 0 1306 1289 17 1306 0" transform="matrix(.1 0 0 -.1 0 470)"/><path d="M846 3955c0-17 6-25 18-25 9 0 34-5 54-11 69-19 69-17 66-478-3-467 1-445-89-457-43-6-49-9-49-30v-24h860v250h-40c-35 0-40-3-40-22 0-41-20-97-46-128l-26-30-177 2-176 3-3 209c-2 145 1 213 9 222 9 11 49 14 180 14h169v60h-169c-131 0-171 3-180 14-8 9-11 70-9 197l3 184 149 3 149 3 29-28c29-28 48-77 48-125 0-26 3-28 40-28h40v250H846zm1200-500v-725h1440v1450H2046zm1368 653c17-17 17-1289 0-1306s-1279-17-1296 0-17 1289 0 1306 1279 17 1296 0" transform="matrix(.1 0 0 -.1 0 470)"/><path d="M2697 3975c-228-64-344-237-344-515 1-293 112-466 338-525 79-20 255-20 325 1 113 34 179 107 164 184l-7 31-46-45c-83-81-198-112-321-86-49 10-71 22-111 58-93 84-114 155-114 387 1 245 34 350 134 420 39 27 50 30 121 30 70 0 81-3 105-25 46-43 66-79 74-128 6-47 7-47 41-44 43 4 87 29 113 64 43 57-5 142-101 179-75 29-288 37-371 14m839-520v-725l718 2 717 3v1440l-717 3-718 2zm1368 653c17-17 17-1289 0-1306s-1289-17-1306 0-17 1289 0 1306 1289 17 1306 0" transform="matrix(.1 0 0 -.1 0 470)"/><path d="M3696 3950c0-29 2-30 43-30 34 0 49-6 68-26l24-26 3-391c4-440 1-460-53-483-19-8-46-14-60-14-20 0-25-5-25-25v-25h490v24c0 21-6 24-49 30-37 5-55 13-71 33-19 25-20 37-18 222l3 196h410l3-175c4-208-4-245-53-266-19-8-46-14-60-14-20 0-25-5-25-25v-25h490v24c0 21-6 24-49 30-37 5-55 13-70 33-20 25-21 38-21 430 0 481-2 473 101 473 37 0 39 2 39 30v30h-490v-30c0-29 2-30 43-30 34 0 49-6 68-26 23-25 24-32 27-190 2-117 0-169-9-180-15-19-378-21-397-2-8 8-12 61-12 170 0 206 10 228 101 228 37 0 39 2 39 30v30h-490zm1325 218c-3-7-4-332-3-723l3-710h1440v1440l-718 3c-569 2-719 0-722-10m1373-60c17-17 17-1289 0-1306s-1289-17-1306 0-17 1289 0 1306 1289 17 1306 0" transform="matrix(.1 0 0 -.1 0 470)"/><path d="M5564 3971c-199-64-299-210-314-461-12-185 44-380 134-467 86-83 200-123 352-124 114-1 171 11 252 52 160 81 248 254 248 487-1 278-131 471-353 522-72 16-255 11-319-9m283-82c103-52 150-184 150-425 0-324-78-466-256-466-70 0-104 14-157 68-75 74-103 203-95 433 5 166 19 231 63 309 58 100 188 135 295 81" transform="matrix(.1 0 0 -.1 0 470)"/></g></svg>